<?xml version="1.0" standalone="no"?>
<!DOCTYPE svg PUBLIC "-//W3C//DTD SVG 20010904//EN"
 "http://www.w3.org/TR/2001/REC-SVG-20010904/DTD/svg10.dtd">
<svg version="1.0" xmlns="http://www.w3.org/2000/svg"
 width="" height="" viewBox="0 0 500.000000 500.000000"
 preserveAspectRatio="xMidYMid meet">

<g transform="translate(0.000000,500.000000) scale(0.100000,-0.100000)" fill="#00000" stroke="none">
<path d="M3383 2913 c-42 -8 -80 -57 -87 -112 l-7 -51 -39 0 -40 0 0 -45 0
-45 40 0 40 0 0 -150 0 -150 50 0 50 0 0 150 0 150 54 0 c54 0 55 0 58 32 2
26 16 -2 71 -145 37 -97 67 -185 67 -195 0 -29 -42 -62 -78 -62 -27 0 -32 -4
-32 -25 l0 -25 -1294 0 -1294 0 14 -62 c8 -34 16 -63 17 -64 1 -1 544 20 1207
48 663 27 1252 47 1310 44 57 -3 123 -1 145 5 22 5 119 13 215 18 l175 8 -167
2 -167 1 24 43 c19 34 163 360 196 445 8 21 6 22 -44 22 l-53 0 -54 -130 c-30
-72 -57 -127 -61 -123 -4 5 -27 62 -51 128 l-43 120 -108 3 c-106 3 -107 3
-107 27 0 40 36 68 77 62 l34 -6 -3 42 -3 42 -45 1 c-25 1 -55 0 -67 -3z"/>
<path d="M3080 2890 c-24 -24 -25 -38 -4 -68 17 -24 62 -30 82 -10 17 17 15
64 -4 82 -21 22 -50 20 -74 -4z"/>
<path d="M1675 2895 c-5 -2 -22 -6 -37 -9 l-28 -6 0 -260 0 -260 50 0 50 0 0
270 c0 274 0 277 -35 265z"/>
<path d="M2943 2889 l-33 -10 0 -79 0 -79 -35 15 c-47 19 -112 17 -160 -5
-116 -52 -150 -204 -68 -301 53 -64 160 -90 227 -55 35 18 36 18 36 0 0 -11
12 -15 50 -15 l50 0 0 270 c0 300 5 280 -67 259z m-53 -244 c16 -15 20 -31 20
-90 0 -84 -14 -103 -78 -112 -124 -17 -183 151 -74 212 34 19 106 14 132 -10z"/>
<path d="M1130 2619 l0 -261 158 4 c128 3 164 7 194 22 90 44 105 159 30 223
l-25 21 26 32 c39 46 38 117 -3 163 -40 46 -86 57 -244 57 l-136 0 0 -261z
m292 154 c10 -9 18 -29 18 -44 0 -44 -31 -59 -127 -59 l-83 0 0 60 0 60 87 0
c66 0 91 -4 105 -17z m-13 -194 c55 -19 66 -65 26 -104 -22 -23 -32 -25 -115
-25 l-90 0 0 70 0 70 74 0 c40 0 87 -5 105 -11z"/>
<path d="M1875 2736 c-63 -28 -115 -110 -115 -181 0 -76 61 -164 128 -186 56
-18 137 -13 188 11 l45 23 -32 33 c-29 30 -34 32 -53 19 -43 -31 -142 -10
-166 34 -5 11 -10 22 -10 25 0 3 65 6 145 6 145 0 145 0 145 23 0 80 -58 172
-123 196 -39 15 -116 13 -152 -3z m146 -95 c16 -16 29 -34 29 -40 0 -7 -34
-11 -95 -11 -61 0 -95 4 -95 11 0 6 13 24 29 40 22 21 39 29 66 29 27 0 44 -8
66 -29z"/>
<path d="M2197 2743 c-4 -3 -7 -91 -7 -195 l0 -188 50 0 50 0 0 134 c0 133 0
135 26 155 29 23 80 27 105 8 32 -25 39 -56 39 -176 l0 -121 51 0 51 0 -4 143
c-4 159 -14 193 -71 227 -39 24 -120 26 -161 5 -35 -18 -36 -18 -36 0 0 11
-11 15 -43 15 -24 0 -47 -3 -50 -7z"/>
<path d="M3070 2555 l0 -195 50 0 50 0 0 195 0 195 -50 0 -50 0 0 -195z"/>
</g>
</svg>
